<svg width="32" height="36" viewBox="0 0 32 36" fill="none" xmlns="http://www.w3.org/2000/svg">
<path d="M2 2L30 2" stroke="white" stroke-width="3" stroke-linecap="round"/>
<path d="M14.5 34C14.5 34.8284 15.1716 35.5 16 35.5C16.8284 35.5 17.5 34.8284 17.5 34L14.5 34ZM17.0607 9.93934C16.4749 9.35355 15.5251 9.35355 14.9393 9.93934L5.3934 19.4853C4.80761 20.0711 4.80761 21.0208 5.3934 21.6066C5.97919 22.1924 6.92893 22.1924 7.51472 21.6066L16 13.1213L24.4853 21.6066C25.0711 22.1924 26.0208 22.1924 26.6066 21.6066C27.1924 21.0208 27.1924 20.0711 26.6066 19.4853L17.0607 9.93934ZM17.5 34L17.5 11L14.5 11L14.5 34L17.5 34Z" fill="white"/>
</svg>
