<?xml version="1.0" encoding="UTF-8"?>
<svg id="Layer_2" data-name="Layer 2" xmlns="http://www.w3.org/2000/svg" viewBox="0 0 119.46 119.96">
  <defs>
    <style>
      .cls-1, .cls-2 {
        fill: none;
      }

      .cls-1, .cls-3, .cls-4 {
        stroke-width: 0px;
      }

      .cls-2 {
        stroke: #66a6e6;
        stroke-miterlimit: 10;
      }

      .cls-3 {
        fill: #1b4a90;
      }

      .cls-4 {
        fill: #66a6e6;
      }
    </style>
  </defs>
  <g id="Layer_1-2" data-name="Layer 1">
    <g>
      <rect class="cls-1" y=".25" width="119.46" height="119.46"/>
      <g>
        <g>
          <g>
            <path class="cls-3" d="M111.08,98.04c4.42,6.64.32,14.52-9.13,17.63l-8.56,2.8c-9.46,3.09-20.7.22-25.11-6.41l-9.32-14.02-12.98-19.53L8.38,21.92c-4.4-6.64-.32-14.52,9.13-17.63l8.56-2.8c9.46-3.09,20.7-.22,25.12,6.41l59.88,90.13ZM93.39,110.64c6.01-1.97,8.32-7.02,5.42-11.37l-39.01-58.71c-2.91-4.35-9.8-6.22-15.81-4.26-6.01,1.97-8.41,6.87-5.51,11.24l39.01,58.7c2.89,4.37,9.89,6.36,15.9,4.4ZM38.57,28.13c6.98-2.27,9.79-8.34,6.52-13.27-3.37-5.07-11.7-7.31-18.67-5.02-6.98,2.27-9.89,8.2-6.52,13.27,3.27,4.93,11.7,7.31,18.67,5.02Z"/>
            <path class="cls-4" d="M104.3,10.25c6.97,2.29,9.88,8.21,6.51,13.27-3.27,4.93-11.7,7.31-18.67,5.04-6.98-2.29-9.79-8.34-6.52-13.28,3.37-5.06,11.7-7.31,18.68-5.02Z"/>
            <path class="cls-4" d="M58.95,98.03l-9.31,14c-3.14,4.72-10.31,7.01-16.32,5.04s-8.14-7.3-5-12.01l17.65-26.57,12.98,19.53Z"/>
          </g>
          <g>
            <path class="cls-2" d="M92.14,28.56c6.97,2.27,15.4-.11,18.67-5.04,3.37-5.06.46-10.98-6.51-13.27-6.98-2.29-15.31-.04-18.68,5.02-3.27,4.94-.46,11,6.52,13.28Z"/>
            <path class="cls-2" d="M45.98,78.49l-17.65,26.57c-3.14,4.71-1.01,10.03,5,12.01s13.19-.32,16.32-5.04l9.31-14"/>
          </g>
        </g>
        <path class="cls-4" d="M65.49,88.18l26.32-39.6c3.13-4.72.91-9.89-5.1-11.86s-13.09.16-16.22,4.88l-17.97,27.05,12.98,19.53Z"/>
      </g>
    </g>
  </g>
</svg>