<?xml version="1.0" encoding="UTF-8"?>
<svg id="Layer_2" data-name="Layer 2" xmlns="http://www.w3.org/2000/svg" viewBox="0 0 341.38 99.21">
  <defs>
    <style>
      .cls-1 {
        stroke: #fff;
      }

      .cls-1, .cls-2 {
        fill: none;
        stroke-miterlimit: 10;
      }

      .cls-2 {
        stroke: #a9c9ea;
      }

      .cls-3 {
        fill: #a9c9ea;
      }

      .cls-3, .cls-4 {
        stroke-width: 0px;
      }

      .cls-4 {
        fill: #fff;
      }
    </style>
  </defs>
  <g id="Layer_1-2" data-name="Layer 1">
    <g>
      <g>
        <g>
          <path class="cls-4" d="M337.26,15.35c2.11,0,3.85,1.66,3.85,3.85s-1.74,3.84-3.85,3.84h-8.82v13.65c0,6.63,3.7,10.02,8.82,10.02,2.11,0,3.85,1.73,3.85,3.84s-1.74,3.93-3.85,3.93c-9.72,0-17.11-6.86-17.11-17.79v-13.65h-2.71c-2.11,0-3.85-1.73-3.85-3.84s1.74-3.85,3.85-3.85h2.71v-5.65c0-2.34,1.81-4.15,4.14-4.15s4.15,1.81,4.15,4.15v5.65h8.82Z"/>
          <path class="cls-4" d="M333.49,82.7c4.35,0,7.64,3.54,7.64,8.01s-3.29,8-7.64,8c-1.94,0-3.69-.69-5.02-1.87v.15c0,.94-.72,1.69-1.66,1.69s-1.66-.75-1.66-1.69v-18.33c0-.94.73-1.66,1.66-1.66s1.66.72,1.66,1.66v5.95c1.33-1.21,3.08-1.91,5.02-1.91ZM337.78,90.71c0-2.81-2.06-4.93-4.66-4.93s-4.56,2.03-4.65,4.72v.21c0,2.81,2.06,4.92,4.65,4.92s4.66-2.11,4.66-4.92Z"/>
          <path class="cls-4" d="M321.29,84.39v12.6c0,.94-.73,1.69-1.66,1.69s-1.66-.75-1.66-1.69v-.15c-1.33,1.18-3.08,1.87-5.02,1.87-4.35,0-7.64-3.53-7.64-8s3.29-8.01,7.64-8.01c1.94,0,3.69.7,5.02,1.91v-.22c0-.93.72-1.66,1.66-1.66s1.66.73,1.66,1.66ZM317.97,90.71v-.21c-.12-2.69-2.12-4.72-4.66-4.72s-4.65,2.12-4.65,4.93,2.06,4.92,4.65,4.92,4.66-2.11,4.66-4.92Z"/>
          <path class="cls-4" d="M309.22,32.16v18.09c0,2.34-1.88,4.23-4.14,4.23s-4.15-1.89-4.15-4.23v-18.39c0-6.33-3.84-9.57-8.67-9.57s-8.67,3.24-8.67,9.57v18.39c0,2.34-1.81,4.23-4.14,4.23s-4.15-1.89-4.15-4.23V4.5c0-2.34,1.81-4.15,4.15-4.15s4.14,1.81,4.14,4.15v13.42c2.41-1.89,5.66-3.32,9.58-3.32,8.97,0,16.05,6.78,16.05,17.56Z"/>
          <path class="cls-4" d="M302.08,78.66v18.33c0,.94-.72,1.69-1.66,1.69s-1.66-.75-1.66-1.69v-18.33c0-.94.72-1.66,1.66-1.66s1.66.72,1.66,1.66Z"/>
          <path class="cls-4" d="M287.38,89.74v7.25c0,.94-.76,1.69-1.66,1.69s-1.66-.75-1.66-1.69v-7.37c0-2.51-1.55-3.84-3.48-3.84s-3.47,1.33-3.47,3.84v7.37c0,.94-.73,1.69-1.66,1.69s-1.66-.75-1.66-1.69v-7.25c0-4.32,2.99-7.04,6.79-7.04s6.8,2.72,6.8,7.04Z"/>
          <path class="cls-4" d="M262.55,82.7c4.63,0,8.01,3.54,8.01,8.01s-3.38,8-8.01,8-8-3.53-8-8,3.41-8.01,8-8.01ZM267.21,90.71c0-2.72-2-4.93-4.66-4.93s-4.65,2.21-4.65,4.93,2,4.92,4.65,4.92,4.66-2.23,4.66-4.92Z"/>
          <path class="cls-4" d="M265.66,18.82v30.08c0,11.3-9.05,19.97-20.36,19.97-6.4,0-11.45-2.71-14.39-6.03-.76-.9-1.21-1.96-1.21-2.79,0-2.33,1.81-3.92,4.07-3.92,1.66,0,2.56.98,3.62,1.89,2.03,1.88,4.6,3.16,7.91,3.16,6.56,0,11.54-5.05,11.99-11.3-3.32,2.94-7.61,4.67-12.44,4.67-10.85,0-19.07-8.82-19.07-19.98s8.22-19.97,19.07-19.97c4.83,0,9.2,1.73,12.51,4.75v-.53c0-2.34,1.81-4.15,4.15-4.15s4.15,1.81,4.15,4.15ZM257.36,35.1v-.53c0-7-5.12-12.28-11.6-12.28s-11.61,5.28-11.61,12.28,5.12,12.29,11.61,12.29,11.3-4.97,11.6-11.76Z"/>
          <path class="cls-4" d="M251.32,84.39v12.6c0,.94-.72,1.69-1.66,1.69s-1.66-.75-1.66-1.69v-12.6c0-.93.72-1.66,1.66-1.66s1.66.73,1.66,1.66Z"/>
          <circle class="cls-4" cx="249.66" cy="79.02" r="1.96"/>
          <path class="cls-4" d="M243.59,83.01c.85,0,1.54.66,1.54,1.54s-.69,1.54-1.54,1.54h-3.53v5.46c0,2.66,1.48,4.02,3.53,4.02.85,0,1.54.7,1.54,1.54s-.69,1.57-1.54,1.57c-3.89,0-6.85-2.75-6.85-7.13v-5.46h-1.09c-.85,0-1.54-.7-1.54-1.54s.69-1.54,1.54-1.54h1.09v-2.27c0-.94.72-1.66,1.66-1.66s1.66.72,1.66,1.66v2.27h3.53Z"/>
          <path class="cls-4" d="M232.27,85.15c.3.36.48.79.48,1.15,0,.9-.69,1.54-1.63,1.54-.66,0-1-.33-1.42-.7-.75-.75-1.78-1.36-3.23-1.36-2.6,0-4.65,2.18-4.65,4.93s2.05,4.92,4.65,4.92c1.39,0,2.48-.6,3.2-1.36.42-.36.79-.75,1.45-.75.94,0,1.63.66,1.63,1.6,0,.33-.18.75-.48,1.08-1.15,1.39-3.23,2.51-5.8,2.51-4.59,0-8-3.53-8-8s3.41-8.01,8-8.01c2.54,0,4.65,1.09,5.8,2.45Z"/>
          <path class="cls-4" d="M217.72,18.82v31.43c0,2.34-1.81,4.23-4.15,4.23s-4.15-1.89-4.15-4.23v-31.43c0-2.34,1.81-4.15,4.15-4.15s4.15,1.81,4.15,4.15Z"/>
          <circle class="cls-4" cx="213.57" cy="5.4" r="4.9"/>
          <path class="cls-4" d="M215.24,84.39v12.6c0,.94-.73,1.69-1.66,1.69s-1.66-.75-1.66-1.69v-.15c-1.33,1.18-3.08,1.87-5.02,1.87-4.35,0-7.64-3.53-7.64-8s3.29-8.01,7.64-8.01c1.94,0,3.69.7,5.02,1.91v-.22c0-.93.72-1.66,1.66-1.66s1.66.73,1.66,1.66ZM211.92,90.71v-.21c-.12-2.69-2.12-4.72-4.66-4.72s-4.65,2.12-4.65,4.93,2.06,4.92,4.65,4.92,4.66-2.11,4.66-4.92Z"/>
          <path class="cls-4" d="M201.14,23.27c0,2.11-1.74,3.69-3.85,3.69-.83,0-1.88-.3-2.41-1.36-1.28-1.43-3.09-3.61-6.03-3.61-2.57,0-4.22,1.88-4.22,4.07,0,3.09,3.16,4.07,7.01,5.35,4.59,1.43,9.8,3.84,9.8,11.38,0,6.33-5.51,11.76-12.59,11.76-6.71,0-12.59-4.37-12.59-9.05,0-2.11,1.66-3.84,3.77-3.84,1.2,0,2.26.53,2.86,1.51,1.13,1.66,2.72,3.92,5.96,3.92,2.49,0,4.29-1.89,4.29-4.07,0-3.09-2.86-4.3-6.4-5.51-4.75-1.65-10.1-3.69-10.1-11.45,0-6.41,5.27-11.46,12.21-11.46,6.41,0,12.29,3.92,12.29,8.67Z"/>
          <path class="cls-4" d="M196.55,82.7c.84,0,1.54.67,1.54,1.54s-.7,1.54-1.54,1.54c-2,0-3.48,1.33-3.48,3.99v7.22c0,.94-.72,1.69-1.66,1.69s-1.66-.75-1.66-1.69v-7.22c0-4.29,2.87-7.07,6.8-7.07Z"/>
          <path class="cls-4" d="M186.64,95.12c0,.33-.18.75-.48,1.08-1.15,1.39-3.23,2.51-5.8,2.51-4.56,0-8-3.53-8-8s3.41-8.01,8-8.01c2.36,0,4.2.94,5.23,1.88.36.33.6.78.6,1.27,0,.42-.12.78-.48,1.2l-4.66,5.53c-.33.39-.69.54-1.14.54-.68,0-1.22-.35-1.45-.9-.08-.19-.12-.39-.12-.61,0-.36.09-.72.36-.99l3.65-4.29c-.51-.36-1.33-.55-1.99-.55-2.6,0-4.65,2.18-4.65,4.93,0,.68.13,1.33.36,1.92.69,1.76,2.32,3,4.29,3,1.42,0,2.48-.6,3.2-1.36.48-.39.82-.75,1.45-.75.94,0,1.63.66,1.63,1.6Z"/>
          <path class="cls-4" d="M169.13,83.01c.84,0,1.54.66,1.54,1.54s-.7,1.54-1.54,1.54h-3.54v5.46c0,2.66,1.48,4.02,3.54,4.02.84,0,1.54.7,1.54,1.54s-.7,1.57-1.54,1.57c-3.9,0-6.86-2.75-6.86-7.13v-5.46h-1.09c-.84,0-1.54-.7-1.54-1.54s.7-1.54,1.54-1.54h1.09v-2.27c0-.94.73-1.66,1.66-1.66s1.66.72,1.66,1.66v2.27h3.54Z"/>
          <path class="cls-4" d="M168.27,32.16v18.09c0,2.34-1.88,4.23-4.14,4.23s-4.15-1.89-4.15-4.23v-18.39c0-6.26-3.84-9.57-8.67-9.57s-8.67,3.31-8.67,9.57v18.39c0,2.34-1.81,4.23-4.14,4.23s-4.15-1.89-4.15-4.23v-18.09c0-10.78,7.46-17.56,16.96-17.56s16.96,6.78,16.96,17.56Z"/>
          <path class="cls-4" d="M157.89,89.74v7.25c0,.94-.75,1.69-1.66,1.69s-1.66-.75-1.66-1.69v-7.37c0-2.51-1.54-3.84-3.47-3.84s-3.47,1.33-3.47,3.84v7.37c0,.94-.73,1.69-1.67,1.69s-1.66-.75-1.66-1.69v-7.25c0-4.32,2.99-7.04,6.8-7.04s6.79,2.72,6.79,7.04Z"/>
          <path class="cls-4" d="M140.44,84.39v12.6c0,.94-.73,1.69-1.66,1.69s-1.66-.75-1.66-1.69v-12.6c0-.93.72-1.66,1.66-1.66s1.66.73,1.66,1.66Z"/>
          <path class="cls-4" d="M138.78,77.06c1.08,0,1.96.87,1.96,1.96s-.88,1.96-1.96,1.96-1.97-.9-1.97-1.96.88-1.96,1.97-1.96Z"/>
          <path class="cls-4" d="M124.53,86.21c.87,0,1.6.72,1.6,1.6s-.73,1.6-1.6,1.6h-3.26v3.14c0,.94-.76,1.72-1.73,1.72s-1.72-.78-1.72-1.72v-3.14h-3.26c-.88,0-1.6-.7-1.6-1.57s.72-1.63,1.6-1.63h3.26v-3.14c0-.94.76-1.72,1.72-1.72s1.73.78,1.73,1.72v3.14h3.26Z"/>
          <path class="cls-4" d="M124.7,18.82v31.43c0,2.34-1.8,4.23-4.14,4.23s-4.15-1.89-4.15-4.23v-31.43c0-2.34,1.81-4.15,4.15-4.15s4.14,1.81,4.14,4.15Z"/>
          <circle class="cls-4" cx="120.56" cy="5.4" r="4.9"/>
          <path class="cls-4" d="M86.39,80.9c3.62,5.45.26,11.94-7.52,14.48l-7.03,2.31c-7.78,2.54-17.02.18-20.65-5.28l-7.66-11.52-10.67-16.06L1.96,18.32c-3.63-5.46-.26-11.94,7.51-14.49l7.04-2.3c7.78-2.55,17.02-.19,20.64,5.27l49.24,74.1ZM71.85,91.25c4.94-1.61,6.84-5.76,4.45-9.34l-32.07-48.27c-2.38-3.59-8.05-5.11-12.99-3.5-4.94,1.62-6.92,5.65-4.53,9.24l32.07,48.26c2.38,3.59,8.13,5.23,13.07,3.61ZM26.78,23.43c5.73-1.88,8.05-6.86,5.36-10.91-2.77-4.17-9.62-6.01-15.36-4.14-5.73,1.88-8.12,6.75-5.36,10.92,2.7,4.05,9.62,6.01,15.36,4.13Z"/>
          <path class="cls-3" d="M80.81,8.73c5.74,1.87,8.13,6.74,5.36,10.91-2.69,4.05-9.62,6.01-15.35,4.13-5.74-1.87-8.06-6.86-5.36-10.91,2.76-4.16,9.62-6.01,15.35-4.13Z"/>
          <path class="cls-3" d="M32.86,64.83l10.67,16.06-7.65,11.51c-2.57,3.88-8.47,5.75-13.41,4.14-4.94-1.62-6.69-6-4.11-9.87l14.5-21.84Z"/>
        </g>
        <g>
          <path class="cls-2" d="M70.82,23.77c5.73,1.88,12.66-.08,15.35-4.13,2.77-4.17.38-9.04-5.36-10.91-5.73-1.88-12.59-.03-15.35,4.13-2.7,4.05-.38,9.04,5.36,10.91Z"/>
          <path class="cls-2" d="M32.86,64.83l-14.5,21.84c-2.58,3.87-.83,8.25,4.11,9.87,4.94,1.61,10.84-.26,13.41-4.14l7.65-11.51"/>
          <path class="cls-1" d="M43.53,80.89l7.66,11.52c3.63,5.46,12.87,7.82,20.65,5.28l7.03-2.31c7.78-2.54,11.14-9.03,7.52-14.48L37.15,6.8C33.53,1.34,24.29-1.02,16.51,1.53l-7.04,2.3C1.7,6.38-1.67,12.86,1.96,18.32l30.9,46.51,10.67,16.06Z"/>
        </g>
      </g>
      <path class="cls-3" d="M48.91,72.79l21.64-32.56c2.58-3.88.75-8.13-4.19-9.75-4.94-1.62-10.76.14-13.34,4.01l-14.78,22.24,10.67,16.06Z"/>
    </g>
  </g>
</svg>