<svg id="Layer_2" data-name="Layer 2" xmlns="http://www.w3.org/2000/svg" viewBox="0 0 682.25 69.02">
  <defs>
    <style>
      .cls-1 {
        fill: #fff;
        stroke-width: 0px;
      }
    </style>
  </defs>
  <g id="Layer_1-2" data-name="Layer 1">
    <g>
      <path class="cls-1" d="M261.04,33.72h-8.05c-2.16,0-3.96-1.71-3.96-3.88s1.8-4.02,3.96-4.02h8.05v-7.76c0-2.31,1.87-4.25,4.25-4.25s4.25,1.94,4.25,4.25v7.76h8.05c2.17,0,3.96,1.79,3.96,3.95s-1.79,3.95-3.96,3.95h-8.05v7.75c0,2.32-1.86,4.26-4.25,4.26s-4.25-1.94-4.25-4.26v-7.75Z"/>
      <path class="cls-1" d="M588.88.58c2.68,0,4.84,2.16,4.84,4.84s-2.16,4.85-4.84,4.85-4.85-2.24-4.85-4.85,2.16-4.84,4.85-4.84Z"/>
      <path class="cls-1" d="M520.14,34.28c0,6.71,5.07,12.16,11.48,12.16,3.44,0,6.12-1.5,7.91-3.36,1.05-.9,1.94-1.86,3.58-1.86,2.31,0,4.02,1.63,4.02,3.94,0,.83-.44,1.87-1.19,2.69-2.83,3.43-7.97,6.19-14.32,6.19-11.33,0-19.75-8.73-19.75-19.76s8.42-19.76,19.75-19.76c6.27,0,11.49,2.69,14.32,6.04.75.89,1.19,1.94,1.19,2.83,0,2.24-1.71,3.81-4.02,3.81-1.64,0-2.46-.83-3.51-1.72-1.86-1.86-4.39-3.35-7.98-3.35-6.41,0-11.48,5.37-11.48,12.15Z"/>
      <path class="cls-1" d="M393.86,19.07c0,2.09-1.71,3.8-3.8,3.8h-8.73v13.5c0,6.56,3.66,9.92,8.73,9.92,2.09,0,3.8,1.71,3.8,3.8s-1.71,3.88-3.8,3.88c-9.62,0-16.93-6.79-16.93-17.6v-13.5h-2.68c-2.09,0-3.8-1.71-3.8-3.8s1.71-3.8,3.8-3.8h2.68v-5.6c0-2.31,1.79-4.1,4.1-4.1s4.1,1.79,4.1,4.1v5.6h8.73c2.09,0,3.8,1.64,3.8,3.8Z"/>
      <path class="cls-1" d="M457.75,14.52c2.09,0,3.8,1.64,3.8,3.8s-1.71,3.81-3.8,3.81c-4.92,0-8.57,3.28-8.57,9.84v17.82c0,2.31-1.79,4.18-4.11,4.18s-4.1-1.87-4.1-4.18v-17.82c0-10.59,7.09-17.45,16.78-17.45Z"/>
      <path class="cls-1" d="M315.13.58c2.69,0,4.85,2.16,4.85,4.84s-2.16,4.85-4.85,4.85-4.84-2.24-4.84-4.85,2.16-4.84,4.84-4.84Z"/>
      <path class="cls-1" d="M640.47,34.28c0,11.03-8.35,19.76-19.76,19.76s-19.76-8.73-19.76-19.76,8.43-19.76,19.76-19.76,19.76,8.72,19.76,19.76ZM609.23,34.28c0,6.64,4.92,12.16,11.48,12.16s11.49-5.52,11.49-12.16-4.93-12.15-11.49-12.15-11.48,5.44-11.48,12.15Z"/>
      <path class="cls-1" d="M315.13,14.6c2.32,0,4.11,1.78,4.11,4.09v31.1c0,2.31-1.79,4.18-4.11,4.18s-4.1-1.87-4.1-4.18v-31.1c0-2.31,1.79-4.09,4.1-4.09Z"/>
      <path class="cls-1" d="M665.21,14.52c9.4,0,16.78,6.71,16.78,17.37v17.9c0,2.31-1.86,4.18-4.1,4.18s-4.1-1.87-4.1-4.18v-18.2c0-6.18-3.8-9.46-8.58-9.46s-8.57,3.28-8.57,9.46v18.2c0,2.31-1.79,4.18-4.1,4.18s-4.1-1.87-4.1-4.18v-17.9c0-10.66,7.38-17.37,16.77-17.37Z"/>
      <path class="cls-1" d="M484.21,22.13c-6.41,0-11.48,5.22-11.48,12.15s5.07,12.16,11.48,12.16,11.49-5.22,11.49-12.16v-.52c-.3-6.64-5.22-11.63-11.49-11.63ZM483.32,14.52c4.77,0,9.1,1.72,12.38,4.7v-.53c0-2.31,1.79-4.09,4.1-4.09s4.1,1.78,4.1,4.09v31.1c0,2.31-1.79,4.18-4.1,4.18s-4.1-1.87-4.1-4.18v-.37c-3.28,2.9-7.61,4.62-12.38,4.62-10.74,0-18.87-8.73-18.87-19.76s8.13-19.76,18.87-19.76Z"/>
      <path class="cls-1" d="M417.79,14.52c5.82,0,10.37,2.31,12.9,4.62.9.82,1.49,1.94,1.49,3.14,0,1.04-.3,1.93-1.19,2.98l-11.48,13.64c-.82.97-1.72,1.34-2.84,1.34-2.23,0-3.88-1.56-3.88-3.72,0-.9.23-1.79.9-2.46l9.02-10.59c-1.26-.9-3.28-1.34-4.92-1.34-6.41,0-11.48,5.37-11.48,12.15s5,12.16,11.48,12.16c3.51,0,6.12-1.5,7.9-3.36,1.2-.97,2.02-1.86,3.59-1.86,2.31,0,4.02,1.63,4.02,3.94,0,.83-.45,1.87-1.19,2.69-2.83,3.43-7.98,6.19-14.32,6.19-11.26,0-19.76-8.73-19.76-19.76s8.43-19.76,19.76-19.76Z"/>
      <path class="cls-1" d="M561.07,5.57c2.31,0,4.1,1.79,4.1,4.1v5.6h8.73c2.08,0,3.8,1.64,3.8,3.8s-1.72,3.8-3.8,3.8h-8.73v13.5c0,6.56,3.66,9.92,8.73,9.92,2.08,0,3.8,1.71,3.8,3.8s-1.72,3.88-3.8,3.88c-9.62,0-16.93-6.79-16.93-17.6v-13.5h-2.69c-2.08,0-3.8-1.71-3.8-3.8s1.72-3.8,3.8-3.8h2.69v-5.6c0-2.31,1.79-4.1,4.1-4.1Z"/>
      <path class="cls-1" d="M588.88,14.6c2.31,0,4.1,1.78,4.1,4.09v31.1c0,2.31-1.79,4.18-4.1,4.18s-4.1-1.87-4.1-4.18v-31.1c0-2.31,1.78-4.09,4.1-4.09Z"/>
      <path class="cls-1" d="M362.33,31.89v17.9c0,2.31-1.87,4.18-4.1,4.18s-4.1-1.87-4.1-4.18v-18.2c0-6.18-3.81-9.46-8.58-9.46s-8.57,3.28-8.57,9.46v18.2c0,2.31-1.79,4.18-4.1,4.18s-4.11-1.87-4.11-4.18v-17.9c0-10.66,7.39-17.37,16.78-17.37s16.78,6.71,16.78,17.37Z"/>
      <path class="cls-1" d="M221.85,15.25c2.11,0,3.84,1.66,3.84,3.84s-1.73,3.85-3.84,3.85h-8.82v13.64c0,6.63,3.69,10.03,8.82,10.03,2.11,0,3.84,1.73,3.84,3.84s-1.73,3.92-3.84,3.92c-9.73,0-17.11-6.86-17.11-17.79v-13.64h-2.72c-2.11,0-3.84-1.74-3.84-3.85s1.73-3.84,3.84-3.84h2.72v-5.65c0-2.34,1.81-4.15,4.14-4.15s4.15,1.81,4.15,4.15v5.65h8.82Z"/>
      <path class="cls-1" d="M193.81,32.06v18.09c0,2.34-1.89,4.22-4.15,4.22s-4.14-1.88-4.14-4.22v-18.39c0-6.34-3.85-9.58-8.67-9.58s-8.67,3.24-8.67,9.58v18.39c0,2.34-1.81,4.22-4.15,4.22s-4.14-1.88-4.14-4.22V4.39c0-2.33,1.81-4.14,4.14-4.14s4.15,1.81,4.15,4.14v13.42c2.41-1.88,5.65-3.32,9.57-3.32,8.97,0,16.06,6.79,16.06,17.57Z"/>
      <path class="cls-1" d="M150.24,18.72v30.07c0,11.31-9.04,19.98-20.35,19.98-6.41,0-11.46-2.72-14.4-6.03-.75-.91-1.2-1.96-1.2-2.79,0-2.34,1.81-3.92,4.07-3.92,1.66,0,2.56.98,3.62,1.88,2.03,1.89,4.59,3.17,7.91,3.17,6.56,0,11.53-5.05,11.99-11.31-3.32,2.94-7.62,4.67-12.44,4.67-10.86,0-19.07-8.81-19.07-19.97s8.21-19.98,19.07-19.98c4.82,0,9.2,1.74,12.51,4.75v-.52c0-2.34,1.81-4.15,4.15-4.15s4.14,1.81,4.14,4.15ZM141.95,35v-.53c0-7.01-5.12-12.29-11.61-12.29s-11.61,5.28-11.61,12.29,5.13,12.29,11.61,12.29,11.31-4.98,11.61-11.76Z"/>
      <path class="cls-1" d="M102.3,18.72v31.43c0,2.34-1.81,4.22-4.14,4.22s-4.15-1.88-4.15-4.22v-31.43c0-2.34,1.81-4.15,4.15-4.15s4.14,1.81,4.14,4.15Z"/>
      <circle class="cls-1" cx="98.16" cy="5.3" r="4.9"/>
      <path class="cls-1" d="M85.72,23.16c0,2.11-1.73,3.7-3.84,3.7-.83,0-1.89-.31-2.41-1.36-1.29-1.43-3.1-3.62-6.03-3.62-2.57,0-4.23,1.89-4.23,4.07,0,3.09,3.17,4.07,7.02,5.35,4.59,1.44,9.79,3.85,9.79,11.39,0,6.33-5.5,11.75-12.58,11.75-6.71,0-12.59-4.37-12.59-9.04,0-2.11,1.66-3.84,3.77-3.84,1.2,0,2.26.52,2.86,1.5,1.13,1.66,2.71,3.92,5.96,3.92,2.48,0,4.29-1.88,4.29-4.07,0-3.09-2.86-4.29-6.41-5.5-4.74-1.66-10.1-3.69-10.1-11.46,0-6.41,5.28-11.46,12.22-11.46,6.4,0,12.28,3.92,12.28,8.67Z"/>
      <path class="cls-1" d="M52.86,32.06v18.09c0,2.34-1.88,4.22-4.15,4.22s-4.14-1.88-4.14-4.22v-18.39c0-6.26-3.85-9.58-8.67-9.58s-8.67,3.32-8.67,9.58v18.39c0,2.34-1.81,4.22-4.15,4.22s-4.14-1.88-4.14-4.22v-18.09c0-10.78,7.46-17.57,16.96-17.57s16.96,6.79,16.96,17.57Z"/>
      <path class="cls-1" d="M9.29,18.72v31.43c0,2.34-1.81,4.22-4.14,4.22s-4.15-1.88-4.15-4.22v-31.43c0-2.34,1.81-4.15,4.15-4.15s4.14,1.81,4.14,4.15Z"/>
      <circle class="cls-1" cx="5.15" cy="5.3" r="4.9"/>
    </g>
  </g>
</svg>